<?xml version="1.0" standalone="no"?>
<!DOCTYPE svg PUBLIC "-//W3C//DTD SVG 20010904//EN"
 "http://www.w3.org/TR/2001/REC-SVG-20010904/DTD/svg10.dtd">
<svg version="1.0" xmlns="http://www.w3.org/2000/svg"
 width="408.000000pt" height="542.000000pt" viewBox="0 0 408.000000 542.000000"
 preserveAspectRatio="xMidYMid meet">
<metadata>
Created by potrace 1.13, written by Peter Selinger 2001-2015
</metadata>
<g transform="translate(0.000000,542.000000) scale(0.100000,-0.100000)"
fill="#000000" stroke="none">
<path d="M0 4713 l0 -708 43 -28 c41 -28 41 -29 12 -24 -39 7 -68 -8 -45 -23
10 -6 11 -10 3 -10 -19 0 -16 -17 5 -24 9 -3 32 -17 50 -30 18 -14 41 -23 50
-20 13 4 13 3 -2 -6 -15 -10 -16 -14 -5 -21 10 -6 8 -9 -8 -9 -27 0 -30 -15
-6 -29 13 -7 23 -5 37 7 11 9 16 11 12 4 -9 -15 14 -41 54 -62 22 -12 23 -13
6 -26 -19 -14 -14 -34 9 -34 20 0 65 -22 65 -32 0 -4 -27 -7 -60 -6 -33 2 -61
0 -62 -3 -2 -3 -24 -8 -50 -11 -34 -4 -48 -2 -52 8 -8 21 -36 17 -36 -6 0 -11
-4 -20 -10 -20 -6 0 -10 -78 -10 -214 l0 -214 83 -8 c45 -4 93 -8 105 -8 20 0
23 -4 20 -28 -3 -15 -1 -28 4 -28 4 0 8 5 8 11 0 6 6 25 14 42 54 120 134 305
161 377 89 233 219 492 341 677 63 98 104 145 237 275 88 87 182 175 208 195
41 33 48 43 51 83 3 25 4 46 2 48 -1 2 -23 -11 -48 -29 -36 -26 -59 -34 -105
-37 -108 -8 -172 47 -231 201 -27 69 -32 95 -32 167 0 112 23 198 74 272 10
14 18 29 18 32 0 3 -56 6 -125 6 l-125 0 0 -89 c0 -104 -21 -227 -50 -285 -29
-62 -114 -151 -166 -176 -40 -20 -51 -21 -82 -11 -40 12 -93 55 -113 93 -29
52 -18 364 16 451 7 16 -3 17 -129 17 l-136 0 0 -707z"/>
<path d="M2528 5263 c-1 -87 1 -161 5 -164 5 -3 39 -4 76 -2 55 2 68 0 68 -12
0 -8 -7 -15 -16 -15 -14 0 -14 -2 -1 -10 8 -5 62 -10 119 -10 98 0 103 1 98
20 -3 10 0 21 7 23 7 2 13 57 16 165 l5 162 -187 0 -186 0 -4 -157z"/>
<path d="M392 5333 c-35 -7 -88 -66 -106 -119 -68 -199 91 -357 224 -224 53
53 72 94 73 154 2 70 -31 134 -85 169 -41 26 -57 29 -106 20z"/>
<path d="M995 5191 c-49 -22 -68 -43 -94 -101 -24 -56 -17 -109 25 -171 39
-58 82 -82 152 -83 68 -1 109 15 142 57 21 27 25 43 28 118 4 84 3 87 -26 120
-37 43 -108 79 -153 79 -19 0 -52 -9 -74 -19z"/>
<path d="M2726 4936 c7 -18 -29 -30 -63 -21 -26 6 -26 6 5 -19 16 -15 35 -26
41 -26 8 0 9 -5 1 -19 -16 -31 -12 -39 25 -51 52 -17 87 -72 130 -203 22 -66
41 -114 43 -108 2 6 -2 51 -8 99 -7 48 -14 106 -16 129 -2 22 -19 76 -37 119
-31 75 -35 79 -79 96 -37 14 -46 14 -42 4z"/>
<path d="M4066 4269 c-15 -283 -77 -736 -135 -984 -53 -225 -96 -377 -207
-728 -47 -147 -84 -277 -82 -289 3 -20 61 -48 101 -48 9 0 25 -4 35 -9 9 -5
37 -19 62 -31 122 -57 197 -145 215 -250 22 -135 -4 -236 -101 -388 -19 -29
-34 -56 -34 -60 0 -4 -25 -31 -55 -60 -40 -37 -63 -52 -83 -52 -56 0 -99 71
-71 116 8 12 26 40 42 63 15 23 36 63 46 90 34 85 2 154 -86 187 -50 20 -135
14 -159 -11 -8 -8 -19 -15 -24 -15 -32 0 -122 -115 -175 -225 -40 -83 -39
-141 4 -275 30 -92 40 -111 82 -152 79 -78 179 -118 295 -118 70 0 228 25 297
46 l47 16 0 1654 c0 910 -2 1654 -4 1654 -1 0 -6 -59 -10 -131z"/>
<path d="M904 3748 c-13 -96 -6 -198 19 -273 79 -229 193 -357 370 -414 65
-22 63 -6 -5 32 -89 50 -210 179 -265 283 -56 107 -93 240 -96 343 -1 45 -4
81 -8 81 -4 0 -10 -24 -15 -52z"/>
<path d="M1395 3721 c-9 -8 -239 -91 -252 -91 -3 0 -3 -7 1 -15 3 -8 1 -15 -3
-15 -11 0 -23 29 -16 40 3 5 1 11 -4 14 -5 3 -11 -9 -15 -27 -5 -24 -2 -35 10
-44 9 -7 21 -10 27 -6 5 3 6 -3 2 -16 -4 -13 -2 -21 5 -21 7 0 9 -8 5 -21 -4
-13 -3 -19 2 -16 6 4 8 -4 6 -17 -4 -17 1 -25 16 -29 12 -3 20 -11 19 -17 -2
-7 6 -14 16 -16 10 -1 22 -7 25 -12 9 -14 62 -39 99 -47 39 -8 125 2 118 14
-3 5 6 19 20 32 61 57 71 137 28 223 -41 82 -81 114 -109 87z"/>
<path d="M838 3690 c-16 -37 -29 -150 -23 -203 20 -210 183 -427 376 -502 67
-26 78 -18 22 16 -148 89 -270 241 -321 399 -31 99 -35 118 -42 215 -3 50 -9
83 -12 75z"/>
<path d="M727 3520 c-10 -38 -8 -133 4 -191 33 -153 169 -343 289 -404 32 -16
75 -28 109 -31 51 -4 53 -3 26 7 -78 31 -204 134 -257 213 -84 123 -124 220
-152 366 -10 53 -13 60 -19 40z"/>
<path d="M623 3304 c6 -109 9 -121 46 -199 85 -174 264 -312 393 -303 l43 3
-50 19 c-99 38 -207 122 -268 210 -77 110 -147 281 -147 358 0 16 -5 28 -12
28 -8 0 -9 -32 -5 -116z"/>
<path d="M2381 3325 c-28 -54 -57 -58 -80 -11 -15 32 -18 31 -53 -33 -21 -38
-51 -40 -74 -6 -25 39 -44 32 -44 -16 0 -81 -32 -100 -85 -49 -40 39 -65 32
-65 -17 0 -43 -15 -73 -37 -73 -10 0 -31 14 -48 30 -29 28 -34 30 -58 19 -22
-10 -27 -19 -27 -46 0 -69 -27 -88 -81 -56 -27 16 -29 16 -65 -9 -20 -14 -61
-50 -92 -79 l-55 -54 58 -3 c41 -2 62 1 74 12 29 26 67 20 91 -14 l22 -30 30
25 c16 14 40 25 53 25 29 0 49 -32 42 -66 -5 -28 -4 -29 26 -10 56 35 97 23
97 -30 0 -28 6 -30 26 -9 19 19 83 30 103 18 9 -6 17 -19 19 -30 3 -19 9 -20
67 -17 58 2 67 6 93 35 23 26 37 33 66 33 29 0 36 4 36 19 0 10 7 35 16 54 13
25 22 33 38 31 17 -2 23 4 31 37 9 34 14 40 37 40 24 -1 28 5 38 46 7 26 18
50 26 53 8 3 14 12 14 19 0 8 9 22 20 32 34 31 17 98 -23 87 -23 -6 -36 12
-38 53 -2 29 -2 29 -8 -5 -8 -48 -41 -49 -57 -2 l-10 32 -17 -35 c-23 -49 -56
-45 -71 8 l-11 38 -24 -46z"/>
<path d="M526 3254 c-13 -95 40 -262 111 -352 41 -53 160 -159 199 -180 82
-43 213 -67 229 -42 4 6 -8 10 -28 10 -80 0 -229 106 -333 238 -102 129 -134
196 -149 309 -9 68 -21 75 -29 17z"/>
<path d="M95 2480 c-4 -6 -10 -8 -15 -5 -5 3 -17 1 -27 -4 -10 -5 -26 -12 -36
-15 -14 -5 -17 -18 -17 -86 0 -85 6 -94 44 -65 11 8 26 15 34 15 27 0 41 34
42 97 0 58 -11 86 -25 63z"/>
<path d="M2511 1192 c-18 -43 -39 -93 -46 -112 -7 -19 -24 -66 -39 -105 -29
-81 -66 -227 -66 -267 0 -45 17 -40 24 7 4 25 15 52 24 62 9 9 17 21 18 27 0
6 2 19 2 28 1 11 7 15 17 12 8 -4 15 -3 15 0 0 4 -10 11 -22 16 -16 6 -18 9
-6 9 11 1 18 14 23 41 5 31 11 40 26 40 12 0 17 5 14 10 -10 17 16 41 36 35
11 -4 19 -2 19 5 0 6 5 8 12 4 7 -4 8 -3 4 4 -4 6 -14 8 -23 5 -12 -5 -14 -3
-8 7 11 18 35 48 57 71 10 10 13 21 9 24 -5 2 -11 -2 -15 -10 -3 -8 -11 -15
-18 -15 -9 0 -9 3 0 12 7 7 12 20 12 30 0 10 5 18 10 18 7 0 6 8 -2 23 -6 12
-12 29 -13 38 -1 8 -8 25 -16 36 -14 20 -16 18 -48 -55z"/>
<path d="M140 1254 c0 -13 26 -51 54 -81 46 -46 65 -71 60 -76 -3 -2 11 -19
30 -37 59 -56 55 -88 -13 -97 -22 -3 -41 -9 -41 -14 0 -5 -13 -15 -29 -24 -25
-13 -34 -13 -63 -1 -18 8 -44 24 -57 35 -26 22 -41 20 -41 -8 0 -9 -9 -27 -20
-39 -17 -18 -20 -35 -20 -117 0 -57 4 -95 10 -95 6 0 10 5 10 10 0 14 52 33
59 23 7 -10 27 -11 36 -1 10 10 47 -11 40 -23 -4 -5 1 -9 10 -9 9 0 32 -16 51
-35 18 -19 38 -35 44 -35 14 0 12 37 -2 51 -8 7 -12 29 -9 55 3 41 5 44 32 44
16 0 29 -5 29 -10 0 -6 9 -14 20 -18 34 -13 129 -96 130 -114 0 -10 4 -18 9
-18 5 0 11 -13 14 -30 4 -16 16 -38 27 -47 14 -12 20 -30 20 -56 0 -27 5 -39
18 -44 9 -4 20 -11 24 -17 12 -18 -2 -26 -28 -16 -17 7 -31 6 -44 -3 -28 -17
-25 -25 8 -20 l27 4 -25 -13 c-14 -8 -26 -10 -28 -6 -2 4 -16 8 -32 8 -16 0
-30 5 -32 11 -6 18 -60 20 -82 4 -15 -12 -17 -17 -7 -29 10 -12 10 -20 -3 -38
-9 -12 -16 -17 -16 -10 0 9 -18 10 -71 6 -39 -4 -74 -3 -77 2 -21 28 -81 44
-83 22 -2 -14 -19 86 -20 115 0 15 -3 16 -14 7 -12 -10 -16 -5 -21 29 -16 99
-24 22 -24 -229 l0 -270 465 0 c462 0 465 0 465 20 0 12 -6 83 -14 158 -8 75
-18 193 -21 262 -9 168 -45 309 -85 330 -12 6 -19 14 -16 17 11 11 -302 255
-316 247 -4 -3 -5 -17 -2 -33 7 -32 -16 -48 -44 -31 -25 14 -192 185 -192 196
0 5 -41 53 -64 75 -19 19 -36 25 -36 13z"/>
<path d="M3075 961 c-12 -28 -16 -53 -12 -86 18 -141 31 -212 42 -225 16 -18
36 -145 29 -180 -6 -29 62 -174 77 -164 18 11 10 245 -12 345 -28 131 -39 197
-39 243 0 41 -35 106 -56 106 -6 0 -19 -18 -29 -39z"/>
<path d="M3891 272 c-1 -12 -8 -25 -16 -28 -10 -4 -13 -13 -10 -24 9 -27 -35
-88 -70 -98 -17 -5 -30 -15 -29 -23 1 -11 -7 -14 -26 -11 -20 3 -31 -3 -44
-22 -13 -21 -24 -26 -56 -26 -33 0 -40 -3 -40 -20 0 -19 7 -20 240 -20 l240 0
0 130 c0 141 2 138 -60 120 -31 -9 -37 -7 -51 11 -12 17 -23 20 -42 15 -16 -4
-27 -1 -30 7 -3 6 -6 2 -6 -11z"/>
<path d="M1411 263 c7 -10 28 -31 46 -48 18 -16 34 -40 36 -52 3 -22 46 -63
66 -63 6 0 11 -9 11 -19 0 -10 12 -33 27 -50 27 -31 28 -31 130 -31 57 0 103
3 103 8 0 20 -196 156 -318 219 -57 29 -105 53 -109 53 -3 0 1 -8 8 -17z"/>
</g>
</svg>
